<?xml version="1.0" encoding="UTF-8" standalone="no"?>
<svg
   xmlns:dc="http://purl.org/dc/elements/1.1/"
   xmlns:cc="http://creativecommons.org/ns#"
   xmlns:rdf="http://www.w3.org/1999/02/22-rdf-syntax-ns#"
   xmlns:svg="http://www.w3.org/2000/svg"
   xmlns="http://www.w3.org/2000/svg"
   xmlns:sodipodi="http://sodipodi.sourceforge.net/DTD/sodipodi-0.dtd"
   xmlns:inkscape="http://www.inkscape.org/namespaces/inkscape"
   width="500mm"
   height="500mm"
   viewBox="0 0 500 500"
   version="1.1"
   id="svg8"
   inkscape:version="1.0.2 (1.0.2+r75+1)"
   sodipodi:docname="guita_logo.svg">
  <defs
     id="defs2" />
  <sodipodi:namedview
     inkscape:showpageshadow="false"
     id="base"
     pagecolor="#272727"
     bordercolor="#666666"
     borderopacity="1.0"
     inkscape:pageopacity="0"
     inkscape:pageshadow="2"
     inkscape:zoom="0.24748737"
     inkscape:cx="562.77394"
     inkscape:cy="1376.9507"
     inkscape:document-units="mm"
     inkscape:current-layer="layer1"
     inkscape:document-rotation="0"
     showgrid="false"
     fit-margin-top="0"
     fit-margin-left="0"
     fit-margin-right="0"
     fit-margin-bottom="0"
     inkscape:window-width="1920"
     inkscape:window-height="1002"
     inkscape:window-x="0"
     inkscape:window-y="28"
     inkscape:window-maximized="1" />
  <metadata
     id="metadata5">
    <rdf:RDF>
      <cc:Work
         rdf:about="">
        <dc:format>image/svg+xml</dc:format>
        <dc:type
           rdf:resource="http://purl.org/dc/dcmitype/StillImage" />
        <dc:title></dc:title>
      </cc:Work>
    </rdf:RDF>
  </metadata>
  <g
     inkscape:label="Canvas"
     inkscape:groupmode="layer"
     id="layer1"
     transform="translate(640.00002,640.00002)">
    <path
       id="rect842"
       style="fill:#ffffff;fill-opacity:1;stroke-width:0.537625;stroke-linecap:square;stroke-linejoin:round"
       d="m -396.12603,-638.27817 c -1.47359,0 -2.65779,1.18659 -2.65779,2.66018 v 66.77118 l 17.56761,0.43382 v -67.205 c 0,-1.47359 -1.18658,-2.66018 -2.66017,-2.66018 z m 14.90982,430.97113 -17.56761,3.76625 v 60.97164 c 0,1.47366 1.1842,2.66018 2.65779,2.66018 h 12.24965 c 1.47359,0 2.66017,-1.18652 2.66017,-2.66018 z" />
    <path
       id="text834"
       style="font-style:normal;font-variant:normal;font-weight:normal;font-stretch:normal;font-size:113.211px;line-height:1.25;font-family:GeosansLight;-inkscape-font-specification:GeosansLight;letter-spacing:0px;word-spacing:0px;fill:#ffffff;stroke-width:8.15944"
       d="m -390.26223,-580.74367 c -55.70187,0 -101.65535,18.10317 -137.86155,54.30937 -35.8581,35.85808 -53.78738,81.63769 -53.78738,137.33955 0,56.39815 17.92928,102.52797 53.78738,138.38595 35.50994,35.50993 81.4634,53.26543 137.86155,53.26543 59.18324,0 106.70408,-18.97509 142.56216,-56.92197 33.07299,-34.81366 49.61119,-77.6348 49.61119,-128.46274 h -146.7407 v 21.41006 h 123.24016 c -3.48136,33.42112 -17.40652,63.36277 -41.77607,89.82121 -32.02858,35.16186 -74.32809,52.7409 -126.89674,52.7409 -49.08727,0 -89.99329,-16.01407 -122.71814,-48.0427 -32.02857,-32.02864 -48.04276,-72.76073 -48.04276,-122.19614 0,-49.08726 16.19045,-89.8194 48.56717,-122.19614 32.3767,-32.3767 73.10646,-48.56475 122.19373,-48.56475 60.22766,0 107.05295,22.97674 140.47409,68.93077 l 17.23388,-13.05292 c -38.29504,-51.1761 -90.86571,-76.76588 -157.70797,-76.76588 z" />
  </g>
  <g
     inkscape:groupmode="layer"
     id="layer2"
     inkscape:label="Contents" />
</svg>
